<?xml version="1.0" standalone="no"?>
<!DOCTYPE svg PUBLIC "-//W3C//DTD SVG 20010904//EN"
 "http://www.w3.org/TR/2001/REC-SVG-20010904/DTD/svg10.dtd">
<svg version="1.0" xmlns="http://www.w3.org/2000/svg"
 width="500.000000pt" height="500.000000pt" viewBox="0 0 500.000000 500.000000"
 preserveAspectRatio="xMidYMid meet">

<g transform="translate(0.000000,500.000000) scale(0.100000,-0.100000)"
fill="#000000" stroke="none">
<path d="M770 2298 c-79 -41 -113 -126 -89 -223 22 -87 92 -135 200 -135 43 0
105 15 121 29 4 4 2 24 -4 44 -11 35 -14 38 -37 30 -14 -4 -50 -8 -79 -8 -45
0 -57 4 -73 24 -10 13 -19 27 -19 32 0 5 52 9 116 9 l117 0 -6 55 c-10 101
-58 153 -148 161 -44 4 -63 1 -99 -18z m111 -78 c10 -6 19 -17 19 -25 0 -11
-13 -15 -56 -15 -56 0 -58 3 -31 38 12 15 42 16 68 2z"/>
<path d="M1130 2298 c-122 -62 -122 -274 0 -335 59 -31 156 -28 207 5 20 13
-15 95 -36 86 -9 -4 -36 -9 -61 -12 -37 -3 -49 0 -65 18 -28 31 -28 110 0 140
18 20 27 22 83 17 l62 -5 0 44 c0 39 -3 46 -26 54 -44 17 -117 12 -164 -12z"/>
<path d="M1475 2305 c-115 -41 -152 -205 -69 -304 54 -65 185 -80 260 -29 66
44 95 160 60 241 -38 89 -147 129 -251 92z m103 -81 c73 -20 66 -173 -9 -189
-85 -19 -133 119 -62 175 28 22 36 23 71 14z"/>
<path d="M1940 2305 c-22 -10 -36 -12 -38 -5 -2 5 -28 10 -58 10 l-54 0 0
-180 0 -180 55 0 55 0 0 123 c0 123 0 124 25 135 39 18 73 15 85 -7 5 -11 10
-72 10 -135 l0 -116 55 0 55 0 0 123 c0 123 0 124 25 135 39 18 73 15 85 -7 5
-11 10 -72 10 -135 l0 -116 55 0 55 0 0 123 c0 140 -10 188 -46 216 -43 34
-98 37 -156 8 -50 -25 -51 -25 -77 -7 -37 27 -99 33 -141 15z"/>
<path d="M2570 2304 c-22 -10 -36 -11 -38 -4 -2 5 -28 10 -58 10 l-54 0 0
-180 0 -180 55 0 55 0 0 119 c0 113 1 121 22 135 27 19 69 21 86 4 8 -8 12
-53 12 -135 l0 -123 55 0 55 0 0 119 c0 113 1 121 22 135 27 19 69 21 86 4 8
-8 12 -53 12 -135 l0 -123 55 0 55 0 0 140 c0 166 -8 189 -71 214 -50 20 -106
14 -143 -15 -26 -20 -46 -25 -46 -10 0 12 -74 41 -103 41 -12 -1 -38 -8 -57
-16z"/>
<path d="M3130 2298 c-62 -32 -90 -83 -90 -167 0 -110 55 -175 158 -188 60 -7
132 3 157 21 16 11 16 17 5 50 -10 32 -16 37 -34 31 -45 -13 -86 -17 -110 -11
-29 7 -56 32 -56 52 0 11 21 14 111 14 l111 0 -4 60 c-7 95 -60 150 -150 157
-41 3 -63 -1 -98 -19z m118 -80 c26 -26 13 -38 -38 -38 -37 0 -50 4 -50 15 0
29 64 47 88 23z"/>
<path d="M3587 2310 c-16 -5 -35 -14 -43 -21 -11 -9 -14 -8 -14 5 0 13 -11 16
-55 16 l-55 0 0 -180 0 -180 55 0 55 0 0 119 0 119 34 16 c19 9 43 16 55 16
19 0 21 6 21 50 0 53 -3 55 -53 40z"/>
<path d="M3765 2306 c-74 -28 -112 -104 -102 -204 13 -125 117 -189 247 -152
59 17 62 21 46 66 -10 29 -18 38 -32 35 -11 -2 -39 -5 -64 -8 -61 -6 -84 18
-84 89 0 42 4 54 25 71 20 16 34 18 87 14 l62 -6 0 44 c0 24 -5 47 -11 51 -24
14 -134 14 -174 0z"/>
<path d="M4080 2298 c-79 -41 -113 -126 -89 -223 22 -87 92 -135 200 -135 43
0 105 15 121 29 4 4 2 24 -4 44 -11 35 -14 38 -37 30 -14 -4 -50 -8 -79 -8
-45 0 -57 4 -73 24 -10 13 -19 27 -19 32 0 5 52 9 116 9 l117 0 -6 55 c-10
101 -58 153 -148 161 -44 4 -63 1 -99 -18z m111 -78 c10 -6 19 -17 19 -25 0
-11 -13 -15 -56 -15 -56 0 -58 3 -31 38 12 15 42 16 68 2z"/>
</g>
</svg>
