<?xml version="1.0" standalone="no"?>
<!DOCTYPE svg PUBLIC "-//W3C//DTD SVG 20010904//EN"
 "http://www.w3.org/TR/2001/REC-SVG-20010904/DTD/svg10.dtd">
<svg version="1.0" xmlns="http://www.w3.org/2000/svg"
 width="500.000000pt" height="262.000000pt" viewBox="0 0 500.000000 262.000000"
 preserveAspectRatio="xMidYMid meet">

<g transform="translate(0.000000,262.000000) scale(0.100000,-0.100000)"
fill="#000000" stroke="none">
<path d="M1564 2607 c-3 -8 -4 -149 -2 -315 3 -340 3 -337 86 -377 l41 -20 1
-553 c0 -362 4 -560 10 -573 10 -19 30 -19 804 -19 715 0 794 2 800 16 3 9 6
266 6 572 l1 557 42 20 c23 11 52 35 65 54 22 34 22 37 20 340 l-3 306 -933 3
c-771 2 -933 0 -938 -11z m1816 -72 l0 -35 -880 0 -880 0 0 35 0 35 880 0 880
0 0 -35z m-1560 -313 c0 -199 -2 -220 -18 -235 -33 -30 -78 -40 -117 -27 -63
21 -65 30 -65 267 l0 213 100 0 100 0 0 -218z m260 0 c0 -199 -2 -220 -18
-235 -33 -30 -78 -40 -117 -27 -63 21 -65 30 -65 267 l0 213 100 0 100 0 0
-218z m260 0 c0 -199 -2 -220 -18 -235 -33 -30 -78 -40 -117 -27 -63 21 -65
30 -65 267 l0 213 100 0 100 0 0 -218z m260 0 c0 -199 -2 -220 -18 -235 -33
-30 -78 -40 -117 -27 -63 21 -65 30 -65 267 l0 213 100 0 100 0 0 -218z m260
0 c0 -199 -2 -220 -18 -235 -33 -30 -78 -40 -117 -27 -63 21 -65 30 -65 267
l0 213 100 0 100 0 0 -218z m260 0 c0 -199 -2 -220 -18 -235 -33 -30 -78 -40
-117 -27 -63 21 -65 30 -65 267 l0 213 100 0 100 0 0 -218z m260 0 c0 -199 -2
-220 -18 -235 -33 -30 -78 -40 -117 -27 -63 21 -65 30 -65 267 l0 213 100 0
100 0 0 -218z m-1494 -297 c52 -35 136 -35 188 0 l36 24 36 -24 c52 -35 136
-35 188 0 l36 24 36 -24 c29 -19 50 -25 94 -25 44 0 65 6 94 25 l36 24 36 -24
c52 -35 136 -35 188 0 l36 24 36 -24 c29 -19 50 -25 94 -25 44 0 65 6 94 25
l36 24 36 -24 c20 -14 43 -25 50 -25 12 0 14 -92 14 -545 l0 -545 -115 0 -115
0 0 443 c0 243 -3 452 -6 465 l-6 22 -507 -2 -506 -3 -3 -462 -2 -463 -120 0
-120 0 0 543 0 543 34 12 c19 7 40 19 46 27 16 19 13 19 56 -10z m584 -280 l0
-35 -215 0 -215 0 0 35 0 35 215 0 215 0 0 -35z m490 0 l0 -35 -215 0 -215 0
0 35 0 35 215 0 215 0 0 -35z m-490 -465 l0 -370 -215 0 -215 0 0 370 0 370
215 0 215 0 0 -370z m490 0 l0 -370 -215 0 -215 0 0 370 0 370 215 0 215 0 0
-370z"/>
<path d="M195 521 c-49 -22 -98 -76 -116 -128 -7 -21 -13 -68 -13 -105 0 -93
39 -170 108 -213 47 -29 54 -30 160 -30 82 0 121 5 148 17 l37 17 -16 48 c-8
26 -19 51 -23 56 -3 4 -23 1 -43 -8 -20 -8 -62 -15 -93 -15 -51 0 -59 3 -91
35 -19 19 -32 39 -28 45 4 6 65 10 157 10 l150 0 -7 67 c-12 112 -43 166 -117
204 -50 25 -158 26 -213 0z m159 -123 c29 -41 21 -48 -53 -48 -39 0 -72 4 -75
9 -3 5 4 20 15 35 27 35 90 37 113 4z"/>
<path d="M674 521 c-87 -40 -131 -133 -122 -261 6 -84 37 -143 95 -184 36 -25
54 -30 120 -34 80 -4 144 7 177 31 18 13 18 16 1 68 -10 30 -19 55 -20 57 -1
1 -18 -5 -38 -13 -57 -24 -123 -20 -152 9 -41 41 -46 146 -9 187 32 35 121 42
187 14 15 -6 17 0 17 59 0 62 -2 67 -26 76 -44 17 -184 12 -230 -9z"/>
<path d="M1115 521 c-89 -40 -141 -137 -133 -248 11 -151 100 -233 253 -233
108 0 184 41 228 123 31 60 31 194 0 253 -25 47 -73 91 -120 111 -48 20 -179
17 -228 -6z m185 -129 c76 -76 33 -232 -64 -232 -25 0 -45 9 -68 29 -31 28
-33 33 -33 101 0 68 2 73 33 101 44 39 93 40 132 1z"/>
<path d="M1737 520 c-44 -24 -47 -24 -47 -5 0 12 -14 15 -70 15 l-70 0 0 -240
0 -240 70 0 70 0 0 160 0 160 33 20 c21 14 46 20 72 18 58 -4 65 -24 65 -205
l0 -153 70 0 70 0 0 160 0 160 33 20 c38 23 85 26 113 6 17 -13 19 -30 22
-180 l3 -166 70 0 69 0 0 182 c0 163 -2 186 -21 224 -43 90 -180 113 -273 46
-36 -26 -45 -29 -50 -16 -9 24 -86 54 -141 54 -32 0 -64 -7 -88 -20z"/>
<path d="M2585 520 c-47 -24 -45 -24 -45 -5 0 12 -14 15 -70 15 l-70 0 0 -240
0 -240 70 0 70 0 0 160 0 160 33 20 c39 24 90 26 111 4 13 -13 16 -44 16 -180
l0 -164 75 0 75 0 0 158 c0 182 4 190 83 199 73 9 77 -1 77 -193 l0 -164 76 0
76 0 -4 188 c-3 165 -5 191 -23 221 -35 60 -67 76 -150 76 -66 0 -78 -3 -118
-32 l-45 -31 -19 20 c-44 50 -149 63 -218 28z"/>
<path d="M3345 521 c-49 -22 -98 -76 -116 -128 -7 -21 -13 -68 -13 -105 0 -93
39 -170 108 -213 47 -29 54 -30 160 -30 82 0 121 5 148 17 l37 17 -16 48 c-8
26 -19 51 -23 56 -3 4 -23 1 -43 -8 -20 -8 -62 -15 -93 -15 -51 0 -59 3 -91
35 -19 19 -32 39 -28 45 4 6 65 10 157 10 l150 0 -7 67 c-12 112 -43 166 -117
204 -50 25 -158 26 -213 0z m159 -123 c29 -41 21 -48 -53 -48 -39 0 -72 4 -75
9 -3 5 4 20 15 35 27 35 90 37 113 4z"/>
<path d="M3925 520 c-47 -24 -55 -25 -55 -5 0 12 -14 15 -70 15 l-70 0 0 -240
0 -240 70 0 69 0 3 157 3 157 32 18 c17 10 51 22 75 26 l43 7 3 63 3 62 -33 0
c-19 0 -51 -9 -73 -20z"/>
<path d="M4174 521 c-87 -40 -131 -133 -122 -261 6 -84 37 -143 95 -184 36
-25 54 -30 120 -34 80 -4 144 7 177 31 18 13 18 16 1 68 -10 30 -19 55 -20 57
-1 1 -18 -5 -38 -13 -57 -24 -123 -20 -152 9 -41 41 -46 146 -9 187 32 35 121
42 187 14 15 -6 17 0 17 59 0 62 -2 67 -26 76 -44 17 -184 12 -230 -9z"/>
<path d="M4620 524 c-75 -33 -125 -105 -136 -197 -14 -117 37 -220 129 -263
80 -37 245 -32 301 9 18 13 18 16 2 65 -10 29 -19 52 -21 52 -1 0 -19 -7 -38
-15 -43 -18 -129 -20 -160 -4 -12 6 -30 21 -39 33 -36 43 -28 46 132 46 l150
0 0 58 c0 110 -37 178 -115 213 -50 23 -156 24 -205 3z m156 -129 c8 -13 13
-29 9 -35 -3 -5 -37 -10 -76 -10 -55 0 -69 3 -69 15 0 53 105 77 136 30z"/>
</g>
</svg>
